# Export of 3DStage_2
# from Aaro4130 OBJ Exporter v2.0
mtllib ForestTreeDShort.mtl
g ForestTreeDShort
v 0.2460199 0.5409223 0.01861192
v 0.1992323 0.01386298 0.2178442
v 0.1992323 0.5409224 0.2178441
v 0.2460199 0.01386297 0.01861199
v 0.1992323 0.5409224 -0.1806203
v 0.1992323 0.01386295 -0.1806202
v 1.043081E-07 0.5409223 -0.2274079
v 1.043081E-07 0.01386295 -0.2274078
v -0.1992321 0.5409224 -0.1806203
v -0.1992321 0.01386295 -0.1806202
v -0.2460197 0.5409223 0.01861194
v -0.2460197 0.01386297 0.01861201
v -0.1992321 0.5409224 0.2178441
v -0.1992321 0.01386298 0.2178442
v 1.043081E-07 0.5409223 0.2646317
v 1.043081E-07 0.01386299 0.2646318
v 0.1992323 0.5409224 0.2178441
v 0.1992323 0.01386298 0.2178442
v 1.043081E-07 0.5409223 0.2646317
v 0.4899226 0.5409225 0.5085346
v 0.1992323 0.5409224 0.2178441
v 5.960464E-08 0.5409225 0.6235878
v -0.1992321 0.5409224 0.2178441
v 0.6707152 0.88554 0.6893269
v -0.4899226 0.5409225 0.5085346
v -0.2460197 0.5409223 0.01861194
v 1.192093E-07 0.88554 0.8468375
v 0.6226251 1.320922 0.6412368
v -0.6049758 0.5409223 0.01861198
v -0.1992321 0.5409224 -0.1806203
v 6.638807E-08 1.320922 0.7874539
v 0.3912994 1.640611 0.4099112
v -0.6707149 0.88554 0.6893269
v -0.4899226 0.5409223 -0.4713106
v 1.043081E-07 0.5409223 -0.2274079
v 8.24076E-08 1.640611 0.5018038
v 0.1911729 1.81947 0.2097846
v 1.043081E-07 1.81947 0.2546795
v -0.622625 1.320922 0.6412368
v -0.8282254 0.8855398 0.0186119
v 5.960464E-08 0.5409223 -0.5863639
v 0.1992323 0.5409224 -0.1806203
v -0.3912993 1.640611 0.4099112
v -0.6707149 0.8855398 -0.6521032
v -0.7688422 1.320922 0.01861192
v 0.4899226 0.5409223 -0.4713106
v 0.2460199 0.5409223 0.01861192
v 1.788139E-07 0.8855398 -0.8096138
v -0.622625 1.320922 -0.6040131
v -0.4831919 1.640611 0.01861181
v -0.1911727 1.81947 0.2097846
v 1.341104E-07 1.84178 0.01861177
v 0.1911729 1.81947 0.2097846
v 0.6049759 0.5409223 0.01861198
v 0.1992323 0.5409224 0.2178441
v 0.4899226 0.5409225 0.5085346
v 0.6707152 0.8855398 -0.6521032
v 0.8282257 0.8855398 0.01861184
v 0.6707152 0.88554 0.6893269
v -0.2360677 1.81947 0.01861178
v 7.317149E-08 1.320922 -0.7502301
v -0.3912993 1.640611 -0.3726875
v 0.6226251 1.320922 -0.6040131
v 0.7688423 1.320922 0.01861191
v 0.6226251 1.320922 0.6412368
v -0.1911727 1.81947 -0.172561
v 1.052106E-07 1.640611 -0.4645801
v 0.4831921 1.640611 0.01861183
v 0.3912994 1.640611 0.4099112
v 0.3912994 1.640611 -0.3726875
v 1.043081E-07 1.81947 -0.217456
v 0.1911729 1.81947 -0.172561
v 0.2360679 1.81947 0.0186118
v -0.2460197 0.01386297 0.01861201
v 1.043081E-07 0.01386295 -0.2274078
v -0.1992321 0.01386295 -0.1806202
v 1.043081E-07 0.01386297 0.01861201
v -0.1992321 0.01386298 0.2178442
v 0.1992323 0.01386295 -0.1806202
v 1.043081E-07 0.01386299 0.2646318
v 0.2460199 0.01386297 0.01861199
v 0.1992323 0.01386298 0.2178442
vn 0.5773503 0 0
vn 0.4082483 0 0.4082483
vn 0.4082483 0 0.4082482
vn 0.5773503 0 0
vn 0.4082483 0 -0.4082483
vn 0.4082483 0 -0.4082483
vn 0 -6.144714E-08 -0.5773503
vn 0 -6.144715E-08 -0.5773503
vn -0.4082483 0 -0.4082483
vn -0.4082483 0 -0.4082483
vn -0.5773503 0 0
vn -0.5773503 0 0
vn -0.4082483 0 0.4082482
vn -0.4082483 0 0.4082483
vn 0 8.192952E-08 0.5773503
vn 0 8.192952E-08 0.5773503
vn 0.4082483 0 0.4082482
vn 0.4082483 0 0.4082483
vn 0 -0.5773503 1.235844E-07
vn 0.2275449 -0.4793536 0.227545
vn 0 -0.5773503 1.352004E-07
vn 0 -0.4902549 0.304932
vn 0 -0.5773503 1.352004E-07
vn 0.3988101 -0.1234271 0.3988102
vn -0.2275451 -0.4793536 0.2275451
vn 6.955549E-08 -0.5773503 8.46651E-08
vn 0 -0.1199893 0.5647441
vn 0.3705608 0.2422865 0.3705608
vn -0.304932 -0.4902549 7.485883E-08
vn 0 -0.5773503 9.326823E-08
vn 0 0.2330402 0.5282286
vn 0.2618237 0.4429785 0.2618237
vn -0.3988101 -0.1234271 0.3988102
vn -0.227545 -0.4793537 -0.2275449
vn 0 -0.5773503 1.640226E-07
vn 0 0.4242042 0.3916428
vn 0.1585654 0.5320219 0.1585654
vn 0 0.5360651 0.2144004
vn -0.3705609 0.2422864 0.3705607
vn -0.564744 -0.1199895 0
vn 0 -0.4902549 -0.3049318
vn 0 -0.5773503 9.326823E-08
vn -0.2618237 0.4429785 0.2618237
vn -0.3988101 -0.1234273 -0.3988102
vn -0.5282288 0.2330401 0
vn 0.2275449 -0.4793537 -0.2275449
vn -6.955551E-08 -0.5773503 8.46651E-08
vn 0 -0.1199895 -0.564744
vn -0.3705609 0.2422863 -0.3705608
vn -0.3916428 0.4242043 0
vn -0.1585653 0.532022 0.1585653
vn 7.253828E-08 0.5773503 0
vn 0.1585654 0.5320219 0.1585654
vn 0.3049318 -0.4902549 7.811354E-08
vn 0 -0.5773503 1.352004E-07
vn 0.2275449 -0.4793536 0.227545
vn 0.3988101 -0.1234272 -0.3988102
vn 0.5647441 -0.1199895 0
vn 0.3988101 -0.1234271 0.3988102
vn -0.2144003 0.5360651 0
vn 0 0.2330401 -0.5282288
vn -0.2618237 0.4429785 -0.2618238
vn 0.3705608 0.2422864 -0.3705608
vn 0.5282288 0.2330402 0
vn 0.3705608 0.2422865 0.3705608
vn -0.1585653 0.532022 -0.1585654
vn 0 0.4242042 -0.3916429
vn 0.3916428 0.4242042 0
vn 0.2618237 0.4429785 0.2618237
vn 0.2618237 0.4429784 -0.2618238
vn 8.870006E-08 0.536065 -0.2144004
vn 0.1585654 0.5320219 -0.1585654
vn 0.2144004 0.536065 0
vn 0 -0.5773503 0
vn 0 -0.5773503 0
vn 0 -0.5773503 0
vn 0 -0.5773503 0
vn 0 -0.5773503 0
vn 0 -0.5773503 0
vn 0 -0.5773503 0
vn 0 -0.5773503 0
vn 0 -0.5773503 0
vt 0.7559062 0.6093718
vt 0.7544919 0.62277
vt 0.7602417 0.6116045
vt 0.7501564 0.6205375
vt 0.7515706 0.6071393
vt 0.7458209 0.6183049
vt 0.7470011 0.6050638
vt 0.7428864 0.614916
vt 0.7420171 0.6037239
vt 0.7403086 0.6132026
vt 0.7374009 0.6033664
vt 0.7371849 0.61339
vt 0.7328845 0.6033664
vt 0.7328845 0.614998
vt 0.728368 0.6033664
vt 0.728368 0.614998
vt 0.7238517 0.6033664
vt 0.7238517 0.614998
vt 0.6515931 0.8393987
vt 0.6418325 0.8340671
vt 0.6476911 0.8406416
vt 0.6504906 0.8332252
vt 0.6559362 0.8394879
vt 0.6405585 0.8256673
vt 0.6559981 0.8326164
vt 0.6602934 0.8392606
vt 0.6505064 0.8282845
vt 0.644906 0.8178068
vt 0.6605725 0.8333371
vt 0.6647363 0.8400801
vt 0.6525171 0.8231196
vt 0.6541889 0.8140635
vt 0.6564004 0.8292059
vt 0.6647935 0.8330271
vt 0.6692001 0.8393448
vt 0.6567985 0.818921
vt 0.6582704 0.8142391
vt 0.6593083 0.8175964
vt 0.6572794 0.825914
vt 0.6607803 0.8300181
vt 0.669016 0.8333989
vt 0.6735785 0.8396537
vt 0.6592432 0.8220075
vt 0.6648123 0.8300831
vt 0.6612437 0.8267213
vt 0.673624 0.8327413
vt 0.6779568 0.8396374
vt 0.6688498 0.830067
vt 0.6648281 0.827355
vt 0.6621764 0.823111
vt 0.6607447 0.8200937
vt 0.6648555 0.8185943
vt 0.6715333 0.8141991
vt 0.6791626 0.8334335
vt 0.6818756 0.8409525
vt 0.6878831 0.8344073
vt 0.673265 0.8293061
vt 0.6792179 0.8284546
vt 0.6892872 0.8259502
vt 0.662901 0.8212979
vt 0.6684226 0.8267564
vt 0.6648448 0.8239008
vt 0.6724199 0.8259875
vt 0.6772548 0.8232249
vt 0.6850018 0.8179555
vt 0.6648511 0.8220516
vt 0.667523 0.8231278
vt 0.6729754 0.8189465
vt 0.6756644 0.8140635
vt 0.6704817 0.8220388
vt 0.6668078 0.8213046
vt 0.6689819 0.8201011
vt 0.6704503 0.8175872
vt 0.7371849 0.61339
vt 0.7428864 0.614916
vt 0.7403086 0.6132026
vt 0.7390651 0.6179068
vt 0.7328845 0.614998
vt 0.7458209 0.6183049
vt 0.7337171 0.6204303
vt 0.7425394 0.6226581
vt 0.7373872 0.6244956
usemtl ColorPaletteNormal
f 3/3/3 2/2/2 1/1/1
f 2/2/2 4/4/4 1/1/1
f 1/1/1 4/4/4 5/5/5
f 4/4/4 6/6/6 5/5/5
f 5/5/5 6/6/6 7/7/7
f 6/6/6 8/8/8 7/7/7
f 7/7/7 8/8/8 9/9/9
f 8/8/8 10/10/10 9/9/9
f 9/9/9 10/10/10 11/11/11
f 10/10/10 12/12/12 11/11/11
f 11/11/11 12/12/12 13/13/13
f 12/12/12 14/14/14 13/13/13
f 13/13/13 14/14/14 15/15/15
f 14/14/14 16/16/16 15/15/15
f 15/15/15 16/16/16 17/17/17
f 16/16/16 18/18/18 17/17/17
f 21/21/21 20/20/20 19/19/19
f 20/20/20 22/22/22 19/19/19
f 19/19/19 22/22/22 23/23/23
f 22/22/22 20/20/20 24/24/24
f 22/22/22 25/25/25 23/23/23
f 23/23/23 25/25/25 26/26/26
f 27/27/27 22/22/22 24/24/24
f 25/25/25 22/22/22 27/27/27
f 27/27/27 24/24/24 28/28/28
f 25/25/25 29/29/29 26/26/26
f 26/26/26 29/29/29 30/30/30
f 31/31/31 27/27/27 28/28/28
f 31/31/31 28/28/28 32/32/32
f 33/33/33 25/25/25 27/27/27
f 29/29/29 25/25/25 33/33/33
f 27/27/27 31/31/31 33/33/33
f 29/29/29 34/34/34 30/30/30
f 30/30/30 34/34/34 35/35/35
f 36/36/36 31/31/31 32/32/32
f 32/32/32 37/37/37 36/36/36
f 37/37/37 38/38/38 36/36/36
f 31/31/31 39/39/39 33/33/33
f 31/31/31 36/36/36 39/39/39
f 40/40/40 29/29/29 33/33/33
f 34/34/34 29/29/29 40/40/40
f 40/40/40 33/33/33 39/39/39
f 34/34/34 41/41/41 35/35/35
f 35/35/35 41/41/41 42/42/42
f 36/36/36 43/43/43 39/39/39
f 36/36/36 38/38/38 43/43/43
f 44/44/44 34/34/34 40/40/40
f 41/41/41 34/34/34 44/44/44
f 45/45/45 40/40/40 39/39/39
f 45/45/45 39/39/39 43/43/43
f 40/40/40 45/45/45 44/44/44
f 41/41/41 46/46/46 42/42/42
f 42/42/42 46/46/46 47/47/47
f 48/48/48 41/41/41 44/44/44
f 46/46/46 41/41/41 48/48/48
f 45/45/45 49/49/49 44/44/44
f 48/48/48 44/44/44 49/49/49
f 50/50/50 45/45/45 43/43/43
f 45/45/45 50/50/50 49/49/49
f 38/38/38 51/51/51 43/43/43
f 43/43/43 51/51/51 50/50/50
f 51/51/51 38/38/38 52/52/52
f 38/38/38 53/53/53 52/52/52
f 46/46/46 54/54/54 47/47/47
f 47/47/47 54/54/54 55/55/55
f 54/54/54 56/56/56 55/55/55
f 57/57/57 46/46/46 48/48/48
f 54/54/54 46/46/46 57/57/57
f 56/56/56 54/54/54 58/58/58
f 58/58/58 54/54/54 57/57/57
f 59/59/59 56/56/56 58/58/58
f 51/51/51 60/60/60 50/50/50
f 60/60/60 51/51/51 52/52/52
f 48/48/48 61/61/61 57/57/57
f 61/61/61 48/48/48 49/49/49
f 50/50/50 62/62/62 49/49/49
f 50/50/50 60/60/60 62/62/62
f 61/61/61 49/49/49 62/62/62
f 58/58/58 57/57/57 63/63/63
f 61/61/61 63/63/63 57/57/57
f 58/58/58 64/64/64 59/59/59
f 64/64/64 58/58/58 63/63/63
f 64/64/64 65/65/65 59/59/59
f 60/60/60 66/66/66 62/62/62
f 66/66/66 60/60/60 52/52/52
f 67/67/67 61/61/61 62/62/62
f 61/61/61 67/67/67 63/63/63
f 62/62/62 66/66/66 67/67/67
f 64/64/64 68/68/68 65/65/65
f 68/68/68 69/69/69 65/65/65
f 64/64/64 63/63/63 70/70/70
f 67/67/67 70/70/70 63/63/63
f 68/68/68 64/64/64 70/70/70
f 66/66/66 71/71/71 67/67/67
f 67/67/67 71/71/71 70/70/70
f 71/71/71 66/66/66 52/52/52
f 71/71/71 72/72/72 70/70/70
f 70/70/70 72/72/72 68/68/68
f 71/71/71 52/52/52 72/72/72
f 68/68/68 73/73/73 69/69/69
f 72/72/72 73/73/73 68/68/68
f 52/52/52 73/73/73 72/72/72
f 73/73/73 53/53/53 69/69/69
f 53/53/53 73/73/73 52/52/52
f 76/76/76 75/75/75 74/74/74
f 75/75/75 77/77/77 74/74/74
f 74/74/74 77/77/77 78/78/78
f 75/75/75 79/79/79 77/77/77
f 77/77/77 80/80/80 78/78/78
f 79/79/79 81/81/81 77/77/77
f 77/77/77 81/81/81 80/80/80
f 81/81/81 82/82/82 80/80/80
